<svg width="416" height="55" viewBox="0 0 416 55" fill="none" xmlns="http://www.w3.org/2000/svg">
<path d="M343 55V0H354L401 38L403 39.5V38V0H416V55H403.5L357 16.8799L354 14.5V16.8799V55H343Z" fill="black"/>
<path d="M11 0H0V54L65 55V46H11V0Z" fill="black"/>
<path d="M86 0H75V43L75.5 45L76.5 47L77.5 48.5L79.5 51L80.5 52L81.5 53L83.1245 54H144L146 53L148 52L149.5 50L151 47.5L152 45.5L153 43V0H141V42L140 44L139 45L137 46H91H90L89 45L88 44L87 42L86.5 41L86 40V0Z" fill="black"/>
<path d="M163 0V55H175V23V20.5L177 23L200 55H210L233 23L235 20.5V23V55H246V0H235L207 40L206 41H205H204L203 40L174 0H163Z" fill="black"/>
<path fill-rule="evenodd" clip-rule="evenodd" d="M271 0C263.82 0 258 5.8203 258 13V42C258 49.1797 263.82 55 271 55H322C329.18 55 335 49.1797 335 42V13C335 5.8203 329.18 0 322 0H271ZM297.36 49.11C304.903 49.11 311.018 42.9954 311.018 35.4527C311.018 30.087 310.25 28.8369 305.436 21.0023C303.483 17.8236 300.864 13.5611 297.36 7.5C293.975 13.352 291.409 17.5262 289.471 20.679C284.621 28.5706 283.703 30.0632 283.703 35.4527C283.703 42.9954 289.818 49.11 297.36 49.11Z" fill="black"/>
</svg>
